<?xml version="1.0" encoding="utf-8"?>
<svg xmlns="http://www.w3.org/2000/svg" viewBox="0 0 1024 1024">
<path fill="#0D0D0D" d="M472.2 328.21C481.797 327.417 497.257 327.998 507.112 327.884C525.584 327.67 546.008 328.008 564.376 328.935C591.213 331.068 616.063 344.089 633.635 363.912C670.049 404.988 654.757 463.773 607.933 488.605C595.705 495.09 589.976 496.293 578.857 505.539C555.673 524.817 557.205 541.145 554.979 568.546L504.769 568.038C494.809 567.999 484.852 568.11 474.891 567.769C470.935 568.026 469.386 564.226 470.05 560.82C471.672 552.005 474.551 543.469 477.174 534.947C484.433 511.367 497.832 498.123 516.239 483.114C546.26 459.747 566.905 435.683 563.526 395.14C561.978 377.644 553.593 361.465 540.19 350.114C502.145 318.056 476.436 360.076 472.747 394.775C471.633 405.256 470.372 418.121 468.182 428.059C464.353 445.434 449.506 460.781 431.18 461.671C417.882 462.636 398.821 458.73 388.679 449.544C363.85 426.743 372.496 388.094 392.753 365.425C414.24 341.379 440.613 330.373 472.2 328.21Z"/>
<path fill="#185FA5" d="M535.591 336.562C539.455 336.117 543.941 336.352 547.853 336.336C563.075 336.275 575.593 337.384 589.761 343.307C608.174 351.004 621.147 362.566 628.733 381.339C635.645 398.445 634.74 418.713 627.685 435.713C618.608 457.584 598.366 474.377 577.831 485.136C571.239 488.59 561.072 492.146 553.899 494.87C544.377 498.493 534.89 502.208 525.439 506.012C508.228 512.962 500.742 517.798 487.634 530.503C492.059 520.812 498.948 510.363 506.697 503.073C525.08 485.779 546.202 471.872 559.567 449.857C571.984 429.824 575.657 405.58 569.731 382.768C565.038 364.009 552.252 346.518 535.591 336.562Z"/>
<path fill="#185FA5" d="M471.274 336.216C475.329 336.072 477.87 336.161 481.933 336.447C460.797 354.519 457.097 375.614 453.887 402.194C452.558 413.026 450.984 423.91 445.211 433.412C434.295 451.378 414.75 456.827 396.664 445.924C369.681 428.179 380.201 388.553 398.959 368.821C418.315 348.458 443.354 337.523 471.274 336.216Z"/>
<path fill="#185FA5" d="M550.895 504.995L551.071 505.142C551.411 506.34 544.753 515.397 543.606 517.423C536.242 530.425 533.536 544.85 533.479 559.446C516.145 559.468 497.307 559.819 480.123 559.198C478.24 557.784 479.821 553.277 480.761 551.434C486.583 540.02 503.233 526.935 514.085 521.195C526.155 514.811 538.728 510.071 550.895 504.995Z"/>
<path fill="#0D0D0D" d="M513.272 575.488C516.552 578.762 531.24 602.834 534.574 608.023C554.76 639.441 574.141 671.901 594.607 703.127C568.881 703.717 542.063 703.416 516.25 703.444L434.838 703.404C437.398 698.197 441.778 691.771 444.919 686.646C451.941 675.093 459.039 663.585 466.211 652.124L493.008 608.43C499.642 597.474 506.174 586.106 513.272 575.488Z"/>
<path fill="#185FA5" d="M465.4 668.313C467.593 669.815 471.762 674.378 473.981 676.471C492.34 693.79 521.09 695.86 543.606 686.039C551.831 682.451 558.196 677.915 565.141 672.389C569.125 678.806 573.155 685.194 577.232 691.552C578.395 693.114 578.27 692.377 578.458 693.991C576.872 694.843 571.352 694.458 569.149 694.47C558.912 694.528 548.674 694.513 538.437 694.427C508.687 694.314 478.936 694.395 449.187 694.669C455.022 685.752 460.001 677.471 465.4 668.313Z"/>
<path fill="#185FA5" d="M513.134 589.806C517.518 594.597 540.813 632.887 543.825 639.147C532.644 631.915 521.488 629.683 508.377 631.187C497.298 632.506 488.284 638.183 479.106 643.965C490.387 626.553 503.063 607.851 513.134 589.806Z"/>
<path fill="#185FA5" d="M502.306 642.095C505.544 642.004 508.41 642.377 510.487 644.997C516.721 652.863 511.834 655.815 506.677 660.475C508.881 661.821 512.866 664.497 515.247 664.551C526.384 665.121 530.68 655.718 529.765 645.998C529.223 640.236 533.039 643.036 533.416 645.748C534.84 656.006 530.939 666.425 519.483 667.885C509.258 669.188 506.846 664.115 499.636 658.808C502.356 663.483 502.83 664.697 507.559 667.66C511.401 669.341 515.42 670.66 519.778 669.677C529.82 667.413 534.798 660.867 535.34 650.755C535.41 649.444 534.718 645.97 535.217 645.255C538.791 644.86 538.333 652.033 538.129 653.754C536.845 664.591 531.033 670.338 520.567 672.715C508.157 675.533 497.709 666.382 495.538 654.499C494.156 646.87 494.447 644.251 502.306 642.095Z"/>
<path fill="#FFFFFF" d="M473.064 661.659C476.614 658.32 482.088 654.361 486.069 651.322C488.328 664.656 491.944 673.953 505.444 679.325L506.373 679.717C507.088 679.878 507.773 680.049 508.484 680.226L506.683 681.245C505.494 681.044 504.321 680.912 503.128 680.737C489.136 676.638 482.683 673.192 473.064 661.659Z"/>
<path fill="#FFFFFF" d="M529.263 678.741C541.498 671.651 544.636 666.506 546.698 652.708C551.196 656.185 554.966 658.952 558.786 663.212C551.141 671.843 541.597 677.724 530.156 679.712L529.263 678.741Z"/>
</svg>
